<?xml version="1.0" encoding="UTF-8" standalone="no"?>
<!DOCTYPE svg PUBLIC "-//W3C//DTD SVG 1.1//EN"
 "http://www.w3.org/Graphics/SVG/1.1/DTD/svg11.dtd">
<!-- Generated by graphviz version 2.40.1 (20161225.0304)
 -->
<!-- Title: %3 Pages: 1 -->
<svg width="722pt" height="404pt"
 viewBox="0.00 0.00 721.66 404.00" xmlns="http://www.w3.org/2000/svg" xmlns:xlink="http://www.w3.org/1999/xlink">
<g id="graph0" class="graph" transform="scale(1 1) rotate(0) translate(4 400)">
<title>%3</title>
<polygon fill="#ffffff" stroke="transparent" points="-4,4 -4,-400 717.6554,-400 717.6554,4 -4,4"/>
<!-- [root] aws_instance.example -->
<g id="node1" class="node">
<title>[root] aws_instance.example</title>
<polygon fill="none" stroke="#000000" points="482.1597,-180 341.0333,-180 341.0333,-144 482.1597,-144 482.1597,-180"/>
<text text-anchor="middle" x="411.5965" y="-157.8" font-family="Times,serif" font-size="14.00" fill="#000000">aws_instance.example</text>
</g>
<!-- [root] provider.aws -->
<g id="node2" class="node">
<title>[root] provider.aws</title>
<polygon fill="none" stroke="#000000" points="329.5965,-108 250.9882,-90 329.5965,-72 408.2048,-90 329.5965,-108"/>
<text text-anchor="middle" x="329.5965" y="-85.8" font-family="Times,serif" font-size="14.00" fill="#000000">provider.aws</text>
</g>
<!-- [root] aws_instance.example&#45;&gt;[root] provider.aws -->
<g id="edge1" class="edge">
<title>[root] aws_instance.example&#45;&gt;[root] provider.aws</title>
<path fill="none" stroke="#000000" d="M390.9044,-143.8314C379.571,-133.8801 365.4679,-121.4968 353.6465,-111.117"/>
<polygon fill="#000000" stroke="#000000" points="355.7127,-108.2736 345.889,-104.3056 351.0941,-113.5337 355.7127,-108.2736"/>
</g>
<!-- [root] var.AMIS -->
<g id="node3" class="node">
<title>[root] var.AMIS</title>
<ellipse fill="none" stroke="#000000" cx="493.5965" cy="-90" rx="67.6702" ry="18"/>
<text text-anchor="middle" x="493.5965" y="-85.8" font-family="Times,serif" font-size="14.00" fill="#000000">[root] var.AMIS</text>
</g>
<!-- [root] aws_instance.example&#45;&gt;[root] var.AMIS -->
<g id="edge2" class="edge">
<title>[root] aws_instance.example&#45;&gt;[root] var.AMIS</title>
<path fill="none" stroke="#000000" d="M432.2886,-143.8314C442.5204,-134.8473 455.0096,-123.8812 466.0394,-114.1965"/>
<polygon fill="#000000" stroke="#000000" points="468.5546,-116.6458 473.7597,-107.4177 463.9359,-111.3857 468.5546,-116.6458"/>
</g>
<!-- [root] var.AWS_REGION -->
<g id="node7" class="node">
<title>[root] var.AWS_REGION</title>
<ellipse fill="none" stroke="#000000" cx="329.5965" cy="-18" rx="102.4934" ry="18"/>
<text text-anchor="middle" x="329.5965" y="-13.8" font-family="Times,serif" font-size="14.00" fill="#000000">[root] var.AWS_REGION</text>
</g>
<!-- [root] provider.aws&#45;&gt;[root] var.AWS_REGION -->
<g id="edge6" class="edge">
<title>[root] provider.aws&#45;&gt;[root] var.AWS_REGION</title>
<path fill="none" stroke="#000000" d="M329.5965,-71.8314C329.5965,-64.131 329.5965,-54.9743 329.5965,-46.4166"/>
<polygon fill="#000000" stroke="#000000" points="333.0966,-46.4132 329.5965,-36.4133 326.0966,-46.4133 333.0966,-46.4132"/>
</g>
<!-- [root] meta.count&#45;boundary (count boundary fixup) -->
<g id="node4" class="node">
<title>[root] meta.count&#45;boundary (count boundary fixup)</title>
<ellipse fill="none" stroke="#000000" cx="191.5965" cy="-306" rx="191.6931" ry="18"/>
<text text-anchor="middle" x="191.5965" y="-301.8" font-family="Times,serif" font-size="14.00" fill="#000000">[root] meta.count&#45;boundary (count boundary fixup)</text>
</g>
<!-- [root] output.ip -->
<g id="node5" class="node">
<title>[root] output.ip</title>
<ellipse fill="none" stroke="#000000" cx="208.5965" cy="-234" rx="64.2873" ry="18"/>
<text text-anchor="middle" x="208.5965" y="-229.8" font-family="Times,serif" font-size="14.00" fill="#000000">[root] output.ip</text>
</g>
<!-- [root] meta.count&#45;boundary (count boundary fixup)&#45;&gt;[root] output.ip -->
<g id="edge3" class="edge">
<title>[root] meta.count&#45;boundary (count boundary fixup)&#45;&gt;[root] output.ip</title>
<path fill="none" stroke="#000000" d="M195.8863,-287.8314C197.7045,-280.131 199.8665,-270.9743 201.887,-262.4166"/>
<polygon fill="#000000" stroke="#000000" points="205.3573,-262.95 204.2489,-252.4133 198.5446,-261.3414 205.3573,-262.95"/>
</g>
<!-- [root] output.ip&#45;&gt;[root] aws_instance.example -->
<g id="edge4" class="edge">
<title>[root] output.ip&#45;&gt;[root] aws_instance.example</title>
<path fill="none" stroke="#000000" d="M248.7028,-219.7751C277.939,-209.4056 318.0609,-195.1752 351.1693,-183.4323"/>
<polygon fill="#000000" stroke="#000000" points="352.4969,-186.6751 360.7517,-180.0336 350.1569,-180.0778 352.4969,-186.6751"/>
</g>
<!-- [root] provider.aws (close) -->
<g id="node6" class="node">
<title>[root] provider.aws (close)</title>
<ellipse fill="none" stroke="#000000" cx="411.5965" cy="-234" rx="104.3276" ry="18"/>
<text text-anchor="middle" x="411.5965" y="-229.8" font-family="Times,serif" font-size="14.00" fill="#000000">[root] provider.aws (close)</text>
</g>
<!-- [root] provider.aws (close)&#45;&gt;[root] aws_instance.example -->
<g id="edge5" class="edge">
<title>[root] provider.aws (close)&#45;&gt;[root] aws_instance.example</title>
<path fill="none" stroke="#000000" d="M411.5965,-215.8314C411.5965,-208.131 411.5965,-198.9743 411.5965,-190.4166"/>
<polygon fill="#000000" stroke="#000000" points="415.0966,-190.4132 411.5965,-180.4133 408.0966,-190.4133 415.0966,-190.4132"/>
</g>
<!-- [root] provisioner.local&#45;exec (close) -->
<g id="node8" class="node">
<title>[root] provisioner.local&#45;exec (close)</title>
<ellipse fill="none" stroke="#000000" cx="576.5965" cy="-306" rx="137.1179" ry="18"/>
<text text-anchor="middle" x="576.5965" y="-301.8" font-family="Times,serif" font-size="14.00" fill="#000000">[root] provisioner.local&#45;exec (close)</text>
</g>
<!-- [root] provisioner.local&#45;exec (close)&#45;&gt;[root] aws_instance.example -->
<g id="edge7" class="edge">
<title>[root] provisioner.local&#45;exec (close)&#45;&gt;[root] aws_instance.example</title>
<path fill="none" stroke="#000000" d="M569.9892,-287.9916C561.9247,-268.1429 546.5894,-236.3384 524.5965,-216 510.454,-202.9214 492.5667,-192.4277 475.2204,-184.2962"/>
<polygon fill="#000000" stroke="#000000" points="476.2237,-180.9108 465.6664,-180.0203 473.3641,-187.3001 476.2237,-180.9108"/>
</g>
<!-- [root] root -->
<g id="node9" class="node">
<title>[root] root</title>
<ellipse fill="none" stroke="#000000" cx="411.5965" cy="-378" rx="46.8976" ry="18"/>
<text text-anchor="middle" x="411.5965" y="-373.8" font-family="Times,serif" font-size="14.00" fill="#000000">[root] root</text>
</g>
<!-- [root] root&#45;&gt;[root] meta.count&#45;boundary (count boundary fixup) -->
<g id="edge8" class="edge">
<title>[root] root&#45;&gt;[root] meta.count&#45;boundary (count boundary fixup)</title>
<path fill="none" stroke="#000000" d="M375.7601,-366.2717C342.9846,-355.5452 293.7664,-339.4374 254.4551,-326.5719"/>
<polygon fill="#000000" stroke="#000000" points="255.2828,-323.1602 244.6902,-323.3761 253.1055,-329.813 255.2828,-323.1602"/>
</g>
<!-- [root] root&#45;&gt;[root] provider.aws (close) -->
<g id="edge9" class="edge">
<title>[root] root&#45;&gt;[root] provider.aws (close)</title>
<path fill="none" stroke="#000000" d="M411.5965,-359.7623C411.5965,-335.201 411.5965,-291.2474 411.5965,-262.3541"/>
<polygon fill="#000000" stroke="#000000" points="415.0966,-262.0896 411.5965,-252.0896 408.0966,-262.0897 415.0966,-262.0896"/>
</g>
<!-- [root] root&#45;&gt;[root] provisioner.local&#45;exec (close) -->
<g id="edge10" class="edge">
<title>[root] root&#45;&gt;[root] provisioner.local&#45;exec (close)</title>
<path fill="none" stroke="#000000" d="M442.6317,-364.4574C466.5147,-354.0357 499.9783,-339.4334 527.4849,-327.4305"/>
<polygon fill="#000000" stroke="#000000" points="529.1748,-330.5119 536.9404,-323.3045 526.3752,-324.0961 529.1748,-330.5119"/>
</g>
</g>
</svg>
